<mxfile host="app.diagrams.net" modified="2023-08-04T13:27:45.992Z" agent="Mozilla/5.0 (Linux; Android 10; K) AppleWebKit/537.36 (KHTML, like Gecko) Chrome/114.0.0.0 Mobile Safari/537.36" version="21.6.6" etag="5GumXiny54Auc0TN_M17" type="github">
  <diagram name="Page-1" id="MVFwb1s-et0gd4q7zx3t">
    <mxGraphModel>
      <root>
        <mxCell id="0" />
        <mxCell id="1" parent="0" />
      </root>
    </mxGraphModel>
  </diagram>
</mxfile>
